<?xml version="1.0" encoding="UTF-8" standalone="no"?>
<!-- Created with Inkscape (http://www.inkscape.org/) -->

<svg
   width="800"
   height="800"
   viewBox="0 0 800 800"
   version="1.1"
   id="svg1"
   xmlns="http://www.w3.org/2000/svg"
   xmlns:svg="http://www.w3.org/2000/svg">
  <defs
     id="defs1" />
  <g
     id="layer1">
    <g
       id="g3"
       transform="matrix(-0.96592327,-0.25878652,0.25881836,-0.96580442,1542.535,1120.1131)">
      <path
         style="fill:#927751;fill-opacity:1"
         id="path2-6"
         d="m 1290.0215,5 c 104.7594,0 205.2325,41.617248 279.3086,115.69336 74.0761,74.07611 115.6914,174.54716 115.6914,279.30664 0,104.75948 -41.6153,205.23053 -115.6914,279.30664 C 1495.254,753.38275 1394.7809,795 1290.0215,795 1185.2621,795 1084.791,753.38278 1010.7148,679.30664 936.6387,605.2305 895.02148,504.75941 895.02148,400 895.02148,181.87359 1071.8951,5 1290.0215,5 Z" />
      <path
         id="path10-7"
         style="fill:#715a3a;fill-opacity:1"
         d="M 1290.0219,-1e-6 C 1069.1083,-1e-6 890.02182,179.08632 890.02182,400 c 0,106.08649 42.1437,207.82927 117.15828,282.84375 C 1082.1946,757.85822 1183.9354,800 1290.0219,800 c 106.0865,0 207.8294,-42.14178 282.8438,-117.15625 75.0145,-75.01448 117.1562,-176.75726 117.1562,-282.84375 0,-106.0865 -42.1417,-207.82732 -117.1562,-282.8418 C 1497.8513,42.143725 1396.1084,-1e-6 1290.0219,-1e-6 Z m -1.9101,10.136719 c -1.9578,14.215035 -2.6887,42.537451 -3.1465,74 -2.2351,-0.075 -4.4719,-0.075 -6.707,0 -6.9417,1.022109 -13.7567,2.771988 -20.3321,5.220703 -4.496,-32.301258 -8.8805,-61.684572 -12.707,-76.154297 14.2302,-1.810188 28.5496,-2.833879 42.8926,-3.066406 z m 5.9492,0.152344 c 14.2645,0.235929 28.5053,1.25439 42.6582,3.050781 -3.7983,14.824535 -8.1731,44.461478 -12.6269,76.128906 -8.7181,-3.015172 -17.8115,-4.809535 -27.0215,-5.332031 -0.4107,-31.324449 -1.0928,-59.561151 -3.0098,-73.847656 z m -54.9434,3.351562 c -0.058,15.737314 3.35,47.554848 7.1094,80.990235 -4.9421,2.215576 -9.6959,4.828997 -14.2148,7.814451 l -9.1758,6.66601 c -9.5662,-35.495127 -19.1,-70.810686 -25.4961,-87.05468 13.762,-3.564662 27.7087,-6.374204 41.7773,-8.416016 z m 103.9141,0.150391 c 14.022,2.137428 27.9171,5.03823 41.6231,8.689453 -6.4368,16.464774 -15.9774,51.624206 -25.5391,86.900392 l -9.5449,-6.93555 c -4.3925,-2.886647 -9.0058,-5.422507 -13.7969,-7.583983 3.8063,-33.416916 7.2739,-65.257688 7.2578,-81.070312 z m -151.9336,9.623047 c 2.265,18.062192 11.6263,56.30321 20.6953,93.720698 l -20.0293,14.55078 c -15.4247,-37.542937 -31.6353,-77.745612 -41.0078,-94.925775 13.1948,-5.178369 26.662,-9.633552 40.3418,-13.345703 z m 199.8984,0.447265 c 13.6011,3.794883 26.9861,8.325656 40.0958,13.572266 -9.4568,17.481713 -25.5807,57.292229 -40.9317,94.501947 l -20.0019,-14.5332 c 9.0772,-37.21896 18.4576,-75.28665 20.8378,-93.541013 z m -246.3046,15.160157 c 5.0249,19.4588 21.4558,61.724336 36.1796,100.580076 l -18.1992,13.22265 c -21.036,-37.01568 -44.1741,-78.823221 -56.3613,-95.732414 12.4563,-6.715295 25.2689,-12.747661 38.3809,-18.070312 z m 292.5683,0.71289 c 13.0229,5.39027 25.7441,11.482554 38.1074,18.25 -12.3043,17.186913 -35.2164,58.392966 -56.1328,95.074216 l -18.1836,-13.21094 c 14.6834,-38.58317 31.0162,-80.443845 36.209,-100.113276 z m -336.6582,20.47461 c 7.8137,19.61092 31.1606,62.451456 51.2735,100.458986 l -17.3457,12.60351 c -26.0587,-34.77136 -55.374,-74.980516 -69.8809,-90.490231 11.5657,-8.171235 23.5678,-15.706495 35.9531,-22.572265 z m 380.5606,0.939453 c 12.2716,6.907478 24.1602,14.474565 35.6132,22.667968 -14.7019,15.879255 -43.5995,55.360725 -69.4023,89.687495 l -17.3437,-12.60156 c 19.9969,-37.65809 43.0844,-79.913543 51.1328,-99.753903 z M 1059.479,86.652343 c 10.2773,18.636497 39.354,58.919787 64.2871,94.437497 l -17.3418,12.60156 c -30.1022,-31.13781 -63.867,-66.95041 -79.9668,-80.26562 10.5122,-9.51819 21.5358,-18.455959 33.0215,-26.773437 z m 462.5879,1.125 c 11.357,8.328503 22.2544,17.266087 32.6445,26.773437 -16.3714,13.71594 -49.5124,48.72621 -79.2266,79.375 l -17.3476,-12.60352 c 24.6993,-35.07695 53.3225,-74.65223 63.9297,-93.544917 z m -234.0371,5.613281 c 19.8573,-0.610449 39.4591,5.371383 55.664,17.144526 l 206.0488,149.70313 c 31.5214,22.90194 44.7343,63.5692 32.6934,100.625 l -78.7031,242.22461 c -12.0402,37.05517 -46.6335,62.18751 -85.5957,62.1875 h -254.6914 c -38.9622,10e-6 -73.5555,-25.13241 -85.5957,-62.1875 L 999.14682,360.86328 c -12.0408,-37.05563 1.17198,-77.72309 32.69348,-100.625 l 206.0488,-149.70313 c 12.2641,-8.90996 26.583,-14.577009 41.6231,-16.476557 2.8399,-0.35881 5.6812,-0.580769 8.5176,-0.667969 z m 0.3085,9.994136 c -2.5203,0.0775 -5.0467,0.27466 -7.5722,0.59375 -13.3691,1.68848 -26.097,6.72678 -36.9981,14.64649 l -206.0488,149.70312 c -27.9942,20.3392 -39.75408,56.53612 -29.0605,89.44531 l 78.7031,242.22461 c 10.6929,32.90862 41.4816,55.27736 76.084,55.27735 h 254.6914 c 34.6024,10e-6 65.391,-22.36858 76.084,-55.27735 l 78.7031,-242.22461 c 10.6936,-32.90954 -1.0664,-69.10605 -29.0606,-89.44531 L 1337.8149,118.625 c -14.4047,-10.46533 -31.8288,-15.78277 -49.4766,-15.24024 z m -266.4257,14.58594 c 12.1799,16.76232 44.9264,51.93039 73.7168,83.5625 l -18.1856,13.21289 c -32.7641,-26.37599 -68.4153,-55.61308 -85.14848,-66.1543 9.30718,-10.739 19.19438,-20.96129 29.61728,-30.62109 z m 537.4746,1.25586 c 10.2858,9.63694 20.0417,19.82443 29.2246,30.51758 -17.0733,10.9422 -51.9049,39.37914 -84.1328,65.24804 l -18.1992,-13.22265 c 28.4131,-31.1269 60.5011,-65.52596 73.1074,-82.54297 z m -570.89858,34.44726 c 13.19548,14.13712 46.84708,42.39865 78.06458,68.98438 l -20.002,14.5332 c -33.2945,-20.56796 -67.44428,-41.7948 -83.67978,-49.29687 7.907,-11.86664 16.4589,-23.29072 25.6172,-34.22071 z m 604.06258,1.33204 c 9.0667,10.83219 17.5382,22.14903 25.377,33.90039 -16.5891,7.84432 -49.9048,28.46427 -82.5274,48.55273 l -20.0293,-14.55273 c 30.6458,-26.02212 63.464,-53.53647 77.1797,-67.90039 z M 959.70932,193.2207 c 13.119,11.02543 44.44818,31.50023 75.80088,51.99023 l -9.5469,6.9375 c -4.1027,3.28526 -7.9401,6.88888 -11.4765,10.77735 -30.92038,-14.08997 -60.42618,-27.35961 -75.31068,-32.09766 6.1501,-12.90259 13.0048,-25.45736 20.5332,-37.60742 z m 661.36728,1.35937 c 7.4332,12.01325 14.2082,24.42154 20.2949,37.16993 -15.151,5.01199 -43.4885,17.69166 -73.2714,31.20898 -3.855,-3.94139 -8.0295,-7.55723 -12.4805,-10.81055 l -9.1758,-6.66601 c 30.551,-19.90321 60.9591,-39.72865 74.6328,-50.90235 z m -684.83408,41.61914 c 12.4968,8.12387 40.0227,21.78623 69.50598,36.16993 -5.5619,7.35947 -10.07878,15.45317 -13.42198,24.05078 -30.2097,-9.37967 -57.3851,-17.46894 -71.4101,-19.96094 4.3631,-13.69202 9.4795,-27.13247 15.3261,-40.25977 z m 708.22078,1.21485 c 5.6958,12.97347 10.6805,26.24773 14.9317,39.76367 -14.4652,2.821 -40.6529,10.61261 -69.4199,19.49609 -3.3784,-8.62029 -7.9376,-16.72966 -13.5469,-24.0957 28.5229,-13.86636 55.113,-27.02188 68.0351,-35.16406 z m -725.57618,44.48242 c 12.709,6.24321 39.5865,15.7643 69.6992,26.03516 -2.3853,8.91004 -3.5262,18.10728 -3.3906,27.33007 -32.421,-5.7611 -61.9271,-10.69424 -76.7051,-11.44531 2.6885,-14.1546 6.1594,-28.14938 10.3965,-41.91992 z m 742.72078,1.21484 c 4.0906,13.52473 7.4432,27.26181 10.0429,41.15039 -15.5189,1.12949 -44.2653,5.99481 -74.8925,11.39063 0.2564,-9.25711 -0.7742,-18.50501 -3.0625,-27.47852 28.723,-9.75375 54.6376,-18.86058 67.9121,-25.0625 z m -442.0996,22.08789 h 28.2656 c 1.7778,0 3.2888,0.62275 4.5332,1.86719 1.2444,1.24445 1.8672,2.84523 1.8672,4.80078 v 173.33399 c 0,1.95555 -0.6228,3.55438 -1.8672,4.79883 -1.2444,1.24444 -2.7554,1.86718 -4.5332,1.86718 h -29.332 c -1.7778,0 -3.3786,-0.62274 -4.8008,-1.86718 -1.2445,-1.24445 -1.8672,-2.84328 -1.8672,-4.79883 V 352.66601 l -38.3984,29.60156 c -1.6,1.24445 -3.2906,1.68759 -5.0684,1.33204 -1.6,-0.35556 -3.0212,-1.3336 -4.2656,-2.9336 l -13.334,-17.33203 c -1.0667,-1.6 -1.5098,-3.28863 -1.332,-5.06641 0.3555,-1.77777 1.3316,-3.20091 2.9316,-4.26757 l 60.8008,-46.9336 c 1.0666,-0.71111 2.0447,-1.15425 2.9336,-1.33203 1.0666,-0.35555 2.2223,-0.53516 3.4668,-0.53516 z m 89.0664,0 h 103.4668 c 1.9555,0 3.5563,0.62275 4.8008,1.86719 1.2444,1.24445 1.8652,2.84523 1.8652,4.80078 v 21.33203 c 0,1.77778 -0.6208,3.29072 -1.8652,4.53516 -1.2445,1.24445 -2.8453,1.86524 -4.8008,1.86524 h -77.0664 l -4,39.20117 c 3.5555,-2.31111 7.9108,-4.35699 13.0664,-6.13477 5.3333,-1.95555 12.7106,-2.93164 22.1328,-2.93164 8.5333,0 16.6231,1.42118 24.2676,4.26563 7.8222,2.66666 14.7543,6.66666 20.7988,12 6.0444,5.33333 10.757,11.7345 14.1348,19.20117 3.5555,7.28889 5.332,15.64418 5.332,25.0664 0,12.80001 -3.022,24.08746 -9.0664,33.86524 -6.0445,9.6 -14.6653,17.15686 -25.8653,22.66797 -11.2,5.33333 -24.5352,8 -40.0019,8 -16,0 -29.4212,-2.57882 -40.2656,-7.73438 -10.8445,-5.15555 -19.1119,-11.91007 -24.8008,-20.26562 -5.5111,-8.35556 -8.4433,-17.24575 -8.7988,-26.66797 0,-1.6 0.5329,-2.93333 1.5996,-4 1.0666,-1.06667 2.4,-1.59961 4,-1.59961 h 30.1328 c 2.1333,0 3.8219,0.53294 5.0664,1.59961 1.4222,0.88889 2.49,2.13437 3.2012,3.73437 1.7777,4.8 4.0891,8.7102 6.9336,11.73243 3.0222,3.02222 6.4873,5.24574 10.3984,6.66796 3.9111,1.42223 8.0887,2.13282 12.5332,2.13282 5.6889,0 10.9344,-1.15569 15.7344,-3.4668 4.8,-2.48889 8.6223,-6.04379 11.4668,-10.66602 2.8444,-4.62222 4.2656,-10.31084 4.2656,-17.0664 0,-5.86667 -1.3333,-11.02235 -4,-15.4668 -2.6667,-4.44444 -6.3992,-7.9115 -11.1992,-10.40039 -4.8,-2.48889 -10.2232,-3.73437 -16.2676,-3.73437 -4.6222,0 -8.4426,0.53489 -11.4648,1.60156 -2.8445,1.06667 -5.2457,2.4 -7.2012,4 -1.9556,1.42222 -3.734,2.75555 -5.334,4 -1.6,1.06667 -3.3765,1.59961 -5.332,1.59961 h -29.5996 c -1.6,0 -3.0232,-0.53294 -4.2676,-1.59961 -1.0667,-1.24445 -1.5996,-2.66758 -1.5996,-4.26758 l 9.334,-92 c 0.3555,-2.48889 1.2437,-4.35516 2.666,-5.59961 1.6,-1.42222 3.4662,-2.13477 5.5996,-2.13477 z m -401.32038,24.29297 c 14.4515,4.95068 45.5651,11.60085 79.3437,18.52539 0.5798,5.38538 1.5962,10.71478 3.0391,15.93555 l 3.5039,10.78711 c -37.0073,-1.8855 -73.8785,-3.75355 -91.125,-2.63281 0.9622,-14.29048 2.711,-28.51714 5.2383,-42.61524 z m 765.80078,1.22071 c 2.4222,13.85329 4.0933,27.82751 5.0059,41.86132 -17.9124,-0.94306 -53.7592,0.81918 -89.7617,2.60157 l 3.6465,-11.22266 c 1.6393,-5.09712 2.8665,-10.3177 3.6699,-15.61133 31.8642,-6.48596 62.0946,-12.8061 77.4394,-17.6289 z m -771.48828,47.68359 c 17.7476,3.4477 57.2259,6.37298 95.7929,9.32422 l 7.65048,23.54492 c -40.79528,3.09281 -84.48408,6.11124 -103.48448,9.75586 -0.6906,-6.99232 -1.1921,-14.00206 -1.5039,-21.02148 0.3149,-7.21409 0.8301,-14.41805 1.545,-21.60352 z m 776.97078,0.83399 c 0.6796,6.90872 1.1744,13.83438 1.4843,20.76953 -0.3133,7.12392 -0.822,14.23795 -1.5254,21.33398 -19.6698,-3.56498 -62.1656,-6.5836 -102.0546,-9.66601 l 7.6406,-23.51172 c 37.5808,-2.82179 75.9764,-5.62071 94.4551,-8.92578 z m -669.3672,44.84179 6.9511,21.39453 c -42.14378,8.6582 -89.55938,17.8451 -109.04498,24.22071 -2.469,-13.99876 -4.1706,-28.12208 -5.0976,-42.30664 19.8727,1.28678 65.4438,-1.30077 107.19148,-3.3086 z m 563.1113,0.39844 c 40.8235,2.02162 85.1729,4.58422 105.7383,3.52539 -0.9379,14.01087 -2.6317,27.9609 -5.0742,41.78906 -20.279,-6.38653 -66.4324,-15.41365 -107.6094,-23.93554 z m -552.0352,33.6875 6.625,20.39258 c -41.52178,14.17477 -89.39148,29.80362 -108.27538,38.77148 -4.1425,-13.61275 -7.5369,-27.44205 -10.168,-41.42578 20.8109,-1.26387 69.1279,-10.29764 111.81838,-17.73828 z m 540.9668,0.38086 c 41.7072,7.33073 88.7489,16.18398 110.3086,17.79687 -2.6085,13.80505 -5.9609,27.45909 -10.0429,40.90235 -19.6987,-9.08364 -66.3099,-24.39168 -106.8907,-38.31055 z m -530.2304,32.66406 6.623,20.38672 c -39.36228,19.22472 -84.46228,40.54982 -101.67188,51.64453 -5.767,-13.03655 -10.815,-26.3795 -15.1211,-39.96875 20.6778,-3.88635 68.3865,-19.23339 110.16998,-32.0625 z m 519.4941,0.37695 c 40.8455,12.60552 87.3015,27.6021 108.666,31.91993 -4.2549,13.43496 -9.2348,26.62948 -14.9179,39.52539 -17.9163,-11.29 -61.8229,-32.15637 -100.3731,-51.05274 z m -508.7461,32.70118 6.9453,21.37695 c -35.2276,23.02164 -74.08068,47.91372 -89.26758,60.56836 -7.4963,-12.10363 -14.3243,-24.60871 -20.4532,-37.45899 19.5273,-6.26509 63.52528,-26.7582 102.77548,-44.48632 z m 497.9961,0.38281 c 38.4494,17.43362 81.2921,37.43148 101.3438,44.13672 -6.0738,12.71673 -12.8324,25.09494 -20.2461,37.08008 -15.7443,-12.87964 -53.5478,-37.20539 -88.0489,-59.82227 z m -486.8906,33.79687 7.6406,23.51368 c -29.5826,25.08251 -59.9633,50.70874 -72.30868,63.92187 -9.1627,-10.93412 -17.7185,-22.36279 -25.6289,-34.23437 17.3119,-7.96782 55.01908,-31.51404 90.29698,-53.20118 z m 475.7793,0.40235 c 34.5404,21.30307 71.2547,44.2765 88.9668,52.6914 -7.8399,11.75346 -16.3127,23.07225 -25.3809,33.90625 -12.7642,-13.43254 -42.3174,-38.45984 -71.2363,-63.05078 z m -463.9219,36.09179 3.6465,11.22266 c 1.8559,4.91676 4.0967,9.67956 6.7012,14.24414 -23.1759,25.2938 -44.3873,48.83372 -53.3203,61.41602 -10.4941,-9.75402 -20.4428,-20.07895 -29.80088,-30.92774 14.55768,-9.09594 43.64738,-32.50851 72.77348,-55.95508 z m 452.0527,0.4375 c 28.4369,22.95939 56.7407,45.78785 71.5508,55.28516 -9.2564,10.74422 -19.092,20.97559 -29.4629,30.64844 -9.3023,-12.82037 -29.9717,-35.81199 -52.5,-60.4707 2.6964,-4.69742 5.0068,-9.60615 6.9082,-14.67774 z m -435.4238,36.25977 c 5.2807,7.56394 11.5827,14.36083 18.7266,20.19727 -18.0467,25.53668 -33.9667,48.63248 -40.8164,61.3125 -11.6156,-8.44 -22.7563,-17.51503 -33.3711,-27.1836 11.5371,-9.28598 32.5671,-30.62394 55.4609,-54.32617 z M 1499.9692,632 c 22.259,23.11115 42.7738,44.00381 54.4941,53.69726 -10.497,9.58405 -21.5102,18.58708 -32.9902,26.96875 -7.1065,-12.89531 -22.7117,-35.57447 -40.3086,-60.55078 7.1658,-5.80584 13.494,-12.5751 18.8047,-20.11523 z m -390.1269,26.96289 c 7.7364,5.02166 16.1304,8.94887 24.9433,11.66992 -15.3459,28.76918 -29.035,55.06879 -34.4394,69.01758 -12.5272,-6.96625 -24.661,-14.61785 -36.3457,-22.91992 9.9488,-10.39248 27.0582,-32.68967 45.8418,-57.76758 z m 361.5292,0.26758 c 18.3187,24.53065 35.068,46.44245 45.1114,57.17187 -11.5745,8.25592 -23.5919,15.87277 -35.9981,22.81641 -5.5976,-14.17393 -19.0642,-40.11505 -34.1093,-68.41797 8.8257,-2.68532 17.2377,-6.57903 24.996,-11.57031 z m -324.0195,14.01171 c 5.3007,1.11244 10.683,1.79242 16.0938,2.03321 h 11.3418 c -13.1511,34.40938 -26.2255,68.66278 -30.5703,85.52539 -13.2078,-5.38822 -26.11,-11.49702 -38.6485,-18.29883 9.2369,-12.46507 24.9778,-39.65894 41.7832,-69.25977 z m 286.4024,0.0606 c 16.5141,29.18645 32.0146,56.06913 41.3203,68.87109 -12.4494,6.79348 -25.2601,12.90282 -38.375,18.30079 -4.4539,-17.06854 -17.3676,-51.04934 -30.3633,-85.19922 h 11.8008 c 5.2495,-0.24617 10.4714,-0.90577 15.6172,-1.97266 z m -245.3164,1.97266 h 24.7578 c -9.6264,39.59564 -20.201,81.86664 -22.668,101.18554 -13.6741,-3.73912 -27.1342,-8.22104 -40.3203,-13.42578 8.7937,-16.02851 23.6299,-52.2936 38.2305,-87.75976 z m 38.2207,0 h 22.4961 c -4.7703,42.59284 -10.6765,90.39053 -10.6836,111.03906 -14.0207,-2.0683 -27.9184,-4.89932 -41.6309,-8.48047 7.3743,-18.74223 18.9056,-62.52136 29.8184,-102.55859 z m 35.8398,0 h 21.4414 c 0.6465,43.6289 0.7272,93.60852 3.3789,114.53125 -14.1735,-0.23934 -28.3234,-1.25126 -42.3867,-3.03125 5.206,-20.4871 11.4981,-68.93161 17.5664,-111.5 z m 34.7461,0 h 21.4355 c 5.9979,42.50932 12.2118,90.86793 17.3848,111.43164 -14.055,1.77842 -28.1963,2.78968 -42.3613,3.02929 2.6767,-20.9463 2.8321,-70.86325 3.541,-114.46093 z m 34.7793,0 h 22.4766 c 10.8083,39.87744 22.2222,83.44657 29.58,102.36914 -13.6762,3.61757 -27.5391,6.48836 -41.5273,8.59961 0,-20.73635 -5.8299,-68.45102 -10.5293,-110.96875 z m 35.9414,0 h 24.7227 c 14.4378,35.21358 29.1002,71.19282 37.9121,87.47461 -13.125,5.2256 -26.5244,9.7342 -40.1387,13.50586 -2.5136,-19.4806 -12.9705,-61.5498 -22.4961,-100.98047 z" />
    </g>
  </g>
</svg>
