<?xml version="1.0" encoding="UTF-8" standalone="no"?>
<!-- Created with Inkscape (http://www.inkscape.org/) -->

<svg
   width="800"
   height="800"
   viewBox="0 0 800 800"
   version="1.1"
   id="svg1"
   xmlns="http://www.w3.org/2000/svg"
   xmlns:svg="http://www.w3.org/2000/svg">
  <defs
     id="defs1" />
  <g
     id="layer1">
    <g
       id="g2"
       transform="rotate(15,400,400)">
      <path
         id="path2"
         style="fill:#927751;fill-opacity:1"
         d="M 400,5 C 181.87363,5 5,181.87363 5,400 5,504.7594 46.61723,605.23051 120.69336,679.30664 194.76949,753.38277 295.2406,795 400,795 504.7594,795 605.23051,753.38277 679.30664,679.30664 753.38277,605.23051 795,504.7594 795,400 795,295.2406 753.38277,194.76949 679.30664,120.69336 605.23051,46.61723 504.7594,5 400,5 Z" />
      <path
         id="path10"
         style="fill:#715a3a;fill-opacity:1"
         d="M 400,0 A 400,400 0 0 0 0,400 400,400 0 0 0 400,800 400,400 0 0 0 800,400 400,400 0 0 0 400,0 Z m -1.91016,10.136719 c -1.95787,14.215046 -2.68867,42.537422 -3.14648,74 a 100,100 0 0 0 -6.70703,0 100,100 0 0 0 -20.33203,5.220703 C 363.40833,57.056133 359.0238,27.67287 355.19727,13.203125 a 390,390 0 0 1 42.89257,-3.066406 z m 5.94922,0.152343 a 390,390 0 0 1 42.65821,3.050782 c -3.79831,14.824548 -8.17306,44.461448 -12.62696,76.128906 a 100,100 0 0 0 -27.02148,-5.332031 c -0.41072,-31.32448 -1.09275,-59.561136 -3.00977,-73.847657 z m -54.94336,3.351563 c -0.0582,15.737332 3.34999,47.55481 7.10938,80.990234 a 100,100 0 0 0 -14.21485,7.814451 l -9.17578,6.66602 C 323.24825,73.616158 313.71454,38.30065 307.31836,22.056641 a 390,390 0 0 1 41.77734,-8.416016 z m 103.91407,0.150391 a 390,390 0 0 1 41.62304,8.689453 c -6.43683,16.464794 -15.97729,51.624167 -25.53906,86.900391 l -9.54492,-6.93555 a 100,100 0 0 0 -13.79688,-7.583982 c 3.80631,-33.416949 7.27392,-65.257663 7.25782,-81.070312 z m -151.9336,9.623046 c 2.26507,18.062211 11.62635,56.303175 20.69531,93.720708 l -20.02929,14.55078 C 286.31753,94.142572 270.10692,53.939946 260.73438,36.759766 a 390,390 0 0 1 40.34179,-13.345704 z m 199.89844,0.447266 a 390,390 0 0 1 40.0957,13.572266 C 531.61346,54.91532 515.48968,94.72579 500.13867,131.93555 l -20.00195,-14.53321 c 9.07715,-37.218998 18.45753,-75.286634 20.83789,-93.541012 z M 254.66992,39.021484 c 5.0249,19.458818 21.45581,61.724296 36.17969,100.580076 l -18.19922,13.22266 C 251.61426,115.8085 228.47629,74.001005 216.28906,57.091797 a 390,390 0 0 1 38.38086,-18.070313 z m 292.56836,0.712891 a 390,390 0 0 1 38.10742,18.25 C 573.04133,75.171307 550.12933,116.3773 529.21289,153.05859 L 511.0293,139.84766 c 14.68335,-38.58321 31.01618,-80.44383 36.20898,-100.113285 z m -336.6582,20.474609 c 7.81371,19.610932 31.16051,62.451426 51.27344,100.458986 l -17.34571,12.60351 C 218.44909,138.50008 189.13386,98.290976 174.62695,82.78125 a 390,390 0 0 1 35.95313,-22.572266 z m 380.56054,0.939454 a 390,390 0 0 1 35.61329,22.667968 C 612.05187,99.695677 583.15442,139.1771 557.35156,173.50391 l -17.34375,-12.60157 c 19.99695,-37.65813 43.08441,-79.913516 51.13281,-99.753902 z M 169.45703,86.652344 c 10.2773,18.636516 39.35399,58.919746 64.28711,94.437496 l -17.3418,12.60157 c -30.10221,-31.13784 -63.86698,-66.9504 -79.96679,-80.26563 a 390,390 0 0 1 33.02148,-26.773436 z m 462.58789,1.125 a 390,390 0 0 1 32.64453,26.773436 c -16.37136,13.71596 -49.51231,48.72618 -79.22656,79.375 l -17.34766,-12.60351 c 24.69929,-35.07699 53.32246,-74.65222 63.92969,-93.544926 z m -234.03711,5.613281 c 19.85736,-0.610458 39.45919,5.371371 55.66407,17.144535 L 659.7207,260.23828 c 31.52144,22.90197 44.73434,63.56917 32.69336,100.625 l -78.70312,242.22461 c -12.04028,37.05521 -46.63347,62.18751 -85.59571,62.1875 h -254.6914 c -38.96222,10e-6 -73.55553,-25.13237 -85.59571,-62.1875 L 109.125,360.86328 c -12.040872,-37.05566 1.17192,-77.72306 32.69336,-100.625 L 347.86719,110.53516 c 12.26408,-8.90997 26.58288,-14.57702 41.62304,-16.476566 2.8399,-0.35881 5.6812,-0.580769 8.51758,-0.667969 z m 0.3086,9.994145 c -2.5203,0.0775 -5.04677,0.27466 -7.57227,0.59375 -13.36918,1.68848 -26.09697,6.72677 -36.99805,14.64648 L 147.69727,268.32812 c -27.99416,20.33922 -39.75403,56.53609 -29.06055,89.44532 l 78.70312,242.22461 c 10.69288,32.90865 41.48155,55.27735 76.08399,55.27734 h 254.6914 c 34.60244,10e-6 65.39101,-22.36854 76.08399,-55.27734 l 78.70312,-242.22461 c 10.69358,-32.90958 -1.0663,-69.10604 -29.06054,-89.44532 L 447.79297,118.625 c -14.40468,-10.46534 -31.8288,-15.78276 -49.47656,-15.24023 z M 131.89062,117.9707 c 12.17986,16.76234 44.9264,51.93036 73.7168,83.5625 l -18.18554,13.21289 C 154.65777,188.37007 119.00654,159.13303 102.27344,148.5918 a 390,390 0 0 1 29.61718,-30.6211 z m 537.47461,1.25586 a 390,390 0 0 1 29.22461,30.51758 c -17.07335,10.94221 -51.90486,39.37912 -84.13281,65.24805 l -18.19922,-13.22266 c 28.41321,-31.12693 60.50112,-65.52594 73.10742,-82.54297 z M 98.466797,153.67383 c 13.195393,14.13713 46.847003,42.39861 78.064453,68.98437 L 156.5293,237.19141 C 123.23466,216.62343 89.085074,195.39661 72.849609,187.89453 a 390,390 0 0 1 25.617188,-34.2207 z m 604.062503,1.33203 a 390,390 0 0 1 25.37695,33.90039 c -16.58907,7.84433 -49.90477,28.46425 -82.52734,48.55273 l -20.0293,-14.55273 c 30.64575,-26.02214 63.46384,-53.53645 77.17969,-67.90039 z m -238.83789,32.3418 c 26.36854,-1.18013 44.96459,27.96495 24.27343,47.96289 -20.69106,19.99938 -39.6106,29.16892 -45.0625,58.07812 121.47186,47.62562 111.36801,159.55614 85.34375,207.01953 -12.76306,22.3645 -11.31619,18.01842 -53.27929,11.41407 -93.88952,-14.77674 -154.79916,28.75842 -161.02344,49.03515 -6.22428,20.27674 -96.06269,18.4558 -9.68945,-73.67187 -80.26694,-35.95941 -63.48902,-196.87906 86.61718,-208.3418 19.96406,-77.4533 53.94576,-90.65123 72.82032,-91.49609 z M 69.6875,193.2207 c 13.119028,11.02544 44.44799,31.50022 75.80078,51.99024 l -9.54687,6.9375 a 100,100 0 0 0 -11.47657,10.77734 C 93.544542,248.8358 64.038818,235.56617 49.154297,230.82812 A 390,390 0 0 1 69.6875,193.2207 Z m 661.36719,1.35938 A 390,390 0 0 1 751.34961,231.75 c -15.15115,5.012 -43.48853,17.69165 -73.27149,31.20898 a 100,100 0 0 0 -12.48046,-10.81054 l -9.17578,-6.66602 c 30.55097,-19.90323 60.95912,-39.72863 74.63281,-50.90234 z M 46.220703,236.19922 c 12.496831,8.12387 40.022687,21.78621 69.505857,36.16992 a 100,100 0 0 0 -13.42187,24.05078 C 72.094947,287.04024 44.919505,278.95098 30.894531,276.45898 a 390,390 0 0 1 15.326172,-40.25976 z m 708.220707,1.21484 a 390,390 0 0 1 14.93164,39.76367 c -14.46518,2.821 -40.65289,10.61261 -69.41993,19.4961 a 100,100 0 0 0 -13.54687,-24.09571 c 28.52299,-13.86638 55.11295,-27.02187 68.03516,-35.16406 z M 28.865234,281.89648 c 12.708995,6.24322 39.586547,15.76429 69.699219,26.03516 a 100,100 0 0 0 -3.390625,27.33008 C 62.752758,329.50061 33.246802,324.56748 18.46875,323.81641 a 390,390 0 0 1 10.396484,-41.91993 z m 742.720706,1.21485 a 390,390 0 0 1 10.04297,41.15039 c -15.51897,1.12949 -44.26536,5.99479 -74.89258,11.39062 a 100,100 0 0 0 -3.0625,-27.47851 c 28.72304,-9.75376 54.63759,-18.86058 67.91211,-25.0625 z M 17.232422,329.49219 c 14.451613,4.95068 45.565208,11.60084 79.34375,18.52539 a 100,100 0 0 0 3.039062,15.93554 l 3.503906,10.78711 c -37.007302,-1.8855 -73.878562,-3.75355 -91.124999,-2.63281 a 390,390 0 0 1 5.238281,-42.61523 z m 765.800778,1.2207 a 390,390 0 0 1 5.00586,41.86133 c -17.9124,-0.94307 -53.75916,0.81917 -89.76172,2.60156 l 3.64649,-11.22266 a 100,100 0 0 0 3.66992,-15.61132 c 31.86426,-6.48597 62.09453,-12.8061 77.43945,-17.62891 z m -396.85742,0.18555 C 303.01004,327.39807 271.41774,443.43937 342.5,441.50586 c 37.35562,-1.01672 44.41318,-105.65224 43.67578,-110.60742 z m 48.52344,13.66015 c 0,0 0.99755,97.91623 -30.42969,113.66407 15.57648,-4.80916 42.52536,-3.73795 78.73828,0.84765 38.85082,-69.7579 -41.60451,-112.61684 -48.30859,-114.51172 z M 11.544922,378.39648 c 17.747688,3.4477 57.225927,6.37298 95.792968,9.32422 l 7.65039,23.54492 c -40.795249,3.09281 -84.483968,6.11124 -103.484374,9.75586 A 390,390 0 0 1 10,400 390,390 0 0 1 11.544922,378.39648 Z m 776.970698,0.83399 A 390,390 0 0 1 790,400 a 390,390 0 0 1 -1.52539,21.33398 c -19.66987,-3.56498 -62.16556,-6.58359 -102.05469,-9.66601 l 7.64063,-23.51172 c 37.58096,-2.82179 75.9763,-5.6207 94.45507,-8.92578 z m -669.36718,44.8418 6.95117,21.39453 c -42.143793,8.65821 -89.55928,17.84509 -109.044922,24.2207 a 390,390 0 0 1 -5.097657,-42.30664 c 19.872675,1.28679 65.44381,-1.30076 107.191409,-3.30859 z m 563.11133,0.39843 c 40.82349,2.02162 85.17289,4.58422 105.73828,3.52539 a 390,390 0 0 1 -5.07422,41.78907 c -20.27907,-6.38654 -66.4323,-15.41365 -107.60938,-23.93555 z m -552.03516,33.6875 6.625,20.39258 C 95.327839,492.72557 47.458232,508.3544 28.574219,517.32227 A 390,390 0 0 1 18.40625,475.89648 c 20.810923,-1.26387 69.127881,-10.29763 111.81836,-17.73828 z m 540.9668,0.38086 c 41.70719,7.33074 88.74874,16.18398 110.30859,17.79688 a 390,390 0 0 1 -10.04297,40.90234 c -19.69878,-9.08365 -66.30981,-24.39167 -106.89062,-38.31055 z m -530.23047,32.66406 6.62304,20.38672 C 108.22174,530.81458 63.121804,552.13966 45.912109,563.23438 A 390,390 0 0 1 30.791016,523.26562 c 20.677836,-3.88636 68.386529,-19.23338 110.169924,-32.0625 z m 519.49414,0.37696 c 40.84548,12.60553 87.30145,27.60209 108.66601,31.91992 a 390,390 0 0 1 -14.91797,39.52539 c -17.9163,-11.29001 -61.82284,-32.15634 -100.37304,-51.05273 z m -508.7461,32.70117 6.94532,21.37695 c -35.22772,23.02166 -74.080641,47.91371 -89.267581,60.56836 A 390,390 0 0 1 48.933594,568.76758 c 19.527344,-6.2651 63.525106,-26.75819 102.775386,-44.48633 z m 497.9961,0.38281 c 38.44939,17.43364 81.29201,37.43148 101.34375,44.13672 a 390,390 0 0 1 -20.2461,37.08008 c -15.74437,-12.87965 -53.54775,-37.20537 -88.04882,-59.82227 z m -486.89063,33.79688 7.64063,23.51367 c -29.58254,25.08254 -59.96331,50.70873 -72.308596,63.92187 A 390,390 0 0 1 72.517578,611.66211 c 17.311939,-7.96782 55.019042,-31.51401 90.296872,-53.20117 z m 475.7793,0.40234 c 34.54046,21.30309 71.25479,44.2765 88.9668,52.69141 a 390,390 0 0 1 -25.38086,33.90625 c -12.76415,-13.43256 -42.31738,-38.45982 -71.23633,-63.05078 z m -463.92187,36.0918 3.64648,11.22265 a 100,100 0 0 0 6.70117,14.24415 c -23.17597,25.29382 -44.38734,48.8337 -53.32031,61.41601 a 390,390 0 0 1 -29.80078,-30.92773 c 14.55753,-9.09595 43.64732,-32.50849 72.77344,-55.95508 z m 452.05273,0.4375 c 28.43693,22.95941 56.74067,45.78783 71.55078,55.28515 a 390,390 0 0 1 -29.46289,30.64844 c -9.30229,-12.82038 -29.97168,-35.81196 -52.5,-60.4707 a 100,100 0 0 0 6.9082,-14.67774 z m -435.42383,36.25976 a 100,100 0 0 0 18.72656,20.19727 c -18.04678,25.53671 -33.9667,48.63247 -40.8164,61.3125 a 390,390 0 0 1 -33.3711,-27.18359 c 11.53708,-9.28599 32.56715,-30.62393 55.46094,-54.32618 z M 609.94727,632 c 22.25899,23.11118 42.77375,44.00381 54.49414,53.69727 a 390,390 0 0 1 -32.99024,26.96875 C 624.34474,699.7707 608.73954,677.09156 591.14258,652.11523 A 100,100 0 0 0 609.94727,632 Z m -390.12696,26.96289 a 100,100 0 0 0 24.94336,11.66992 c -15.34585,28.76921 -29.03507,55.06878 -34.43945,69.01758 a 390,390 0 0 1 -36.3457,-22.91992 c 9.94888,-10.39249 27.05819,-32.68964 45.84179,-57.76758 z m 361.5293,0.26758 c 18.31872,24.53068 35.06788,46.44244 45.11133,57.17187 a 390,390 0 0 1 -35.99805,22.81641 c -5.59757,-14.17394 -19.06421,-40.11502 -34.10937,-68.41797 a 100,100 0 0 0 24.99609,-11.57031 z m -324.01953,14.01172 a 100,100 0 0 0 16.09375,2.0332 h 11.34179 c -13.15115,34.40942 -26.22544,68.66277 -30.57031,85.52539 a 390,390 0 0 1 -38.64843,-18.29883 c 9.23693,-12.46508 24.97786,-39.6589 41.7832,-69.25976 z m 286.40234,0.0605 c 16.51417,29.18648 32.01458,56.06912 41.32031,68.8711 a 390,390 0 0 1 -38.375,18.30078 c -4.45389,-17.06855 -17.36762,-51.0493 -30.36328,-85.19922 h 11.80078 a 100,100 0 0 0 15.61719,-1.97266 z m -245.3164,1.97266 h 24.75781 c -9.62641,39.59568 -20.20089,81.86663 -22.66797,101.18555 a 390,390 0 0 1 -40.32031,-13.42578 c 8.79379,-16.02853 23.62981,-52.29357 38.23047,-87.75977 z m 38.2207,0 h 22.49609 c -4.77033,42.59289 -10.67653,90.39051 -10.68359,111.03906 a 390,390 0 0 1 -41.63086,-8.48047 c 7.37431,-18.74225 18.90554,-62.52132 29.81836,-102.55859 z m 35.83984,0 h 21.44141 c 0.64657,43.62895 0.72721,93.6085 3.37891,114.53125 a 390,390 0 0 1 -42.38672,-3.03125 c 5.20606,-20.48712 11.49816,-68.93156 17.5664,-111.5 z m 34.7461,0 h 21.43554 c 5.99787,42.50937 12.21177,90.86791 17.38477,111.43164 a 390,390 0 0 1 -42.36133,3.0293 c 2.67667,-20.94633 2.83216,-70.86321 3.54102,-114.46094 z m 34.77929,0 h 22.47657 c 10.80834,39.87748 22.22228,83.44655 29.58007,102.36914 a 390,390 0 0 1 -41.52734,8.59961 c -0.004,-20.73637 -5.82984,-68.45097 -10.5293,-110.96875 z m 35.94141,0 h 24.72266 c 14.43784,35.21362 29.10017,71.19281 37.9121,87.47461 a 390,390 0 0 1 -40.13867,13.50586 C 497.92592,756.7752 487.46902,714.7061 477.94336,675.27539 Z" />
    </g>
  </g>
</svg>
